<?xml version="1.0"?><svg fill="#FFFFFF" xmlns="http://www.w3.org/2000/svg"  viewBox="0 0 30 30" width="30px" height="30px">    <path d="M 15 3 C 8.372 3 3 8.372 3 15 C 3 18.928083 4.8956254 22.404747 7.8125 24.59375 C 7.8122123 24.593925 7.8007812 24.599609 7.8007812 24.599609 C 7.8168067 24.608564 7.8522875 24.627295 7.8691406 24.636719 C 9.8641535 26.115571 12.325605 27 15 27 C 21.628 27 27 21.628 27 15 C 27 8.372 21.628 3 15 3 z M 17.392578 5.3007812 C 21.342478 6.2757399 24.369886 9.5964158 24.90625 13.699219 C 24.812564 13.762456 24.710306 13.800781 24.599609 13.800781 C 22.593626 13.800781 21.355256 7.7668699 17.392578 5.3007812 z M 10.402344 6.1289062 C 13.759369 6.2780068 16.257635 10.515026 18.601562 12.599609 C 20.466598 14.256898 22.926415 15.721743 24.908203 16.289062 C 24.821073 16.961806 24.665582 17.612053 24.451172 18.236328 C 22.18175 17.814478 19.766971 16.560936 17.400391 15 C 13.651391 12.529 10.237781 10.199219 7.8007812 10.199219 C 7.1323524 10.199219 6.5530678 10.348476 6.0546875 10.558594 C 7.0003032 8.6623138 8.5247797 7.1061802 10.402344 6.1289062 z M 6.5996094 18.599609 C 8.6326094 18.599609 11.713781 22.199219 19.800781 22.199219 C 20.644397 22.199219 21.432565 22.095337 22.15625 21.970703 C 20.979123 23.17891 19.501877 24.089066 17.84375 24.582031 C 17.693783 24.586631 17.555674 24.599609 17.400391 24.599609 C 13.996391 24.599609 13.034391 23.400391 11.400391 23.400391 C 10.93762 23.400391 10.457525 23.504865 9.9941406 23.642578 C 8.0959801 22.538683 6.589795 20.834905 5.7480469 18.785156 C 5.9913966 18.677701 6.2673096 18.599609 6.5996094 18.599609 z"/></svg>